<svg version="1.1" id="Layer_1" xmlns="http://www.w3.org/2000/svg" xmlns:xlink="http://www.w3.org/1999/xlink" x="0px" y="0px"
	 width="100%" viewBox="0 0 1774 887" enable-background="new 0 0 1774 887" xml:space="preserve">
<path fill="#040406" opacity="1.000000" stroke="none" 
	d="
M1215.000000,888.000000 
	C810.000000,888.000000 405.500000,888.000000 1.000000,888.000000 
	C1.000000,592.333313 1.000000,296.666656 1.000000,1.000000 
	C592.333313,1.000000 1183.666626,1.000000 1775.000000,1.000000 
	C1775.000000,296.666656 1775.000000,592.333313 1775.000000,888.000000 
	C1588.500000,888.000000 1402.000000,888.000000 1215.000000,888.000000 
M501.500000,529.849854 
	C909.439392,529.849854 1317.378784,529.849854 1725.502808,529.849854 
	C1725.502808,526.242737 1725.502808,523.187744 1725.502808,520.024170 
	C1178.092163,520.024170 630.994141,520.024170 83.768738,520.024170 
	C83.768738,523.380310 83.768738,526.454651 83.768738,529.849792 
	C222.888580,529.849792 361.694275,529.849792 501.500000,529.849854 
M456.231995,438.432190 
	C456.231995,395.194366 456.231995,351.956573 456.231995,308.710327 
	C447.700256,308.710327 439.956818,308.710327 431.685425,308.710327 
	C431.685425,340.857849 431.685425,372.637665 431.685425,404.929504 
	C430.904541,404.182068 430.620148,403.984222 430.431305,403.718475 
	C408.639313,373.051117 386.862427,342.373047 365.041168,311.726532 
	C364.131470,310.448883 362.847168,308.537750 361.676483,308.492310 
	C354.107605,308.198822 346.521820,308.341980 339.053467,308.341980 
	C339.053467,354.924042 339.053467,400.654663 339.053467,446.424255 
	C347.189697,446.424255 354.945526,446.424255 363.319672,446.424255 
	C363.319672,414.182404 363.319672,382.260651 363.319672,349.134338 
	C366.198181,353.222717 368.295502,356.209839 370.401215,359.191010 
	C390.279877,387.334442 410.146942,415.486115 430.082825,443.588928 
	C430.971436,444.841644 432.458282,446.477905 433.719482,446.525269 
	C441.121857,446.803345 448.539948,446.661896 456.220581,446.661896 
	C456.220581,443.716034 456.220581,441.561310 456.231995,438.432190 
M1527.559570,446.872467 
	C1543.727417,450.009186 1559.577148,449.170349 1574.300903,441.367889 
	C1602.122314,426.624908 1613.302002,402.495087 1611.731079,371.889557 
	C1609.587891,330.135071 1571.808838,300.441742 1530.702759,307.907623 
	C1502.759155,312.982849 1481.660889,335.764679 1476.257568,366.697296 
	C1469.768799,403.843811 1491.510132,438.289734 1527.559570,446.872467 
M535.223267,307.773254 
	C499.258270,314.798676 475.169617,346.178619 477.463562,383.015961 
	C479.461243,415.095093 500.730713,440.758057 530.657288,446.679504 
	C554.629578,451.422821 576.977844,446.944366 597.685852,433.945068 
	C600.449158,432.210449 601.266541,430.218628 601.245544,427.049103 
	C601.131653,409.891571 601.260864,392.732452 601.304993,375.573883 
	C601.309570,373.788788 601.305603,372.003723 601.305603,370.134735 
	C583.170959,370.134735 565.564819,370.134735 547.817871,370.134735 
	C547.817871,377.095642 547.817871,383.815186 547.817871,391.027100 
	C557.956238,391.027100 567.691895,391.027100 577.614502,391.027100 
	C577.614502,397.189301 577.651978,402.850983 577.606567,408.512024 
	C577.514099,420.049255 577.495728,420.049133 566.252502,423.554260 
	C535.391052,433.175476 507.766357,416.537354 503.510254,385.067261 
	C499.449768,355.043762 520.489929,326.161987 555.195190,329.789459 
	C565.737549,330.891357 574.962219,335.132385 584.128723,340.902283 
	C587.840637,334.371277 591.420593,328.072357 595.155762,321.500519 
	C577.107178,308.576996 557.375671,304.813354 535.223267,307.773254 
M1455.311157,376.500671 
	C1455.311157,353.896393 1455.311157,331.292114 1455.311157,308.659302 
	C1446.746582,308.659302 1438.834229,308.659302 1430.347168,308.659302 
	C1430.347168,327.198090 1430.347168,345.412811 1430.347168,363.610840 
	C1410.196045,363.610840 1390.628052,363.610840 1370.718262,363.610840 
	C1370.718262,345.140198 1370.718262,327.029022 1370.718262,308.613617 
	C1362.299194,308.613617 1354.226318,308.613617 1346.098389,308.613617 
	C1346.098389,354.710419 1346.098389,400.472473 1346.098389,446.370667 
	C1354.437256,446.370667 1362.500977,446.370667 1371.020020,446.370667 
	C1371.020020,426.105927 1371.020020,406.178894 1371.020020,386.061523 
	C1391.060303,386.061523 1410.639526,386.061523 1430.768555,386.061523 
	C1430.768555,406.382721 1430.768555,426.443756 1430.768555,446.332977 
	C1439.225464,446.332977 1447.125488,446.332977 1455.309692,446.332977 
	C1455.309692,423.125702 1455.309692,400.313202 1455.311157,376.500671 
M313.740265,361.500305 
	C313.740265,343.906250 313.740265,326.312195 313.740265,308.565613 
	C305.209900,308.565613 297.283997,308.565613 288.911072,308.565613 
	C288.911072,310.429626 288.911804,312.046753 288.910950,313.663849 
	C288.896729,340.658081 288.934601,367.652527 288.841858,394.646484 
	C288.805359,405.264618 286.190552,414.927826 276.520599,420.974396 
	C265.410828,427.921234 253.828415,427.935913 242.269073,422.096313 
	C231.153717,416.480957 228.048187,406.356934 227.989395,394.950165 
	C227.851120,368.123077 227.933548,341.294891 227.926788,314.467133 
	C227.926300,312.558899 227.926727,310.650696 227.926727,308.709717 
	C219.232925,308.709717 211.322693,308.709717 203.312897,308.709717 
	C203.312897,340.044403 202.782410,371.036499 203.532562,401.997589 
	C203.918396,417.922150 211.152954,431.247955 225.148010,439.941223 
	C239.337692,448.755371 254.977661,450.081116 270.993652,447.398468 
	C297.419464,442.972168 313.262146,424.308533 313.706848,397.491730 
	C313.900238,385.830963 313.741974,374.164337 313.740265,361.500305 
M766.512573,411.995667 
	C778.167847,411.992645 789.824524,412.087769 801.477295,411.915741 
	C804.299255,411.874115 805.552795,412.729065 806.442810,415.427063 
	C809.516846,424.745209 812.804138,433.996429 816.229126,443.191589 
	C816.746643,444.580933 818.391418,446.492035 819.577637,446.537964 
	C827.345459,446.838715 835.130615,446.692841 843.816528,446.692841 
	C826.591675,400.172272 809.635376,354.377136 792.647339,308.496185 
	C783.829346,308.496185 775.204895,308.496185 766.650940,308.496185 
	C749.437866,354.591095 732.298218,400.489410 715.087585,446.577881 
	C716.223877,446.663330 716.720032,446.732330 717.216370,446.733124 
	C723.876465,446.743744 730.542297,446.584778 737.193787,446.826202 
	C739.900879,446.924438 741.024902,445.818604 741.786438,443.519897 
	C743.926147,437.060547 746.177063,430.638153 748.367310,424.195465 
	C752.496155,412.049896 752.491272,412.048218 766.512573,411.995667 
M1630.636597,313.827637 
	C1630.636597,358.051788 1630.636597,402.275940 1630.636597,446.412415 
	C1639.221313,446.412415 1646.992310,446.412415 1655.234375,446.412415 
	C1655.234375,429.686066 1655.234375,413.274261 1655.234375,396.120453 
	C1665.531372,396.120453 1675.389648,396.691620 1685.161621,396.015472 
	C1717.009399,393.811798 1735.580444,361.119934 1721.705688,332.288300 
	C1714.026611,316.331268 1700.083374,309.811066 1683.709229,308.853210 
	C1666.288452,307.834167 1648.761841,308.623993 1630.917847,308.623993 
	C1630.829468,309.997711 1630.735596,311.454102 1630.636597,313.827637 
M176.231735,431.705688 
	C191.508163,409.911652 185.541885,384.958893 161.915878,372.744965 
	C155.438858,369.396576 148.526947,366.899475 141.893661,363.840240 
	C135.722061,360.993988 129.424026,358.306244 123.614624,354.825958 
	C118.747475,351.910126 116.314285,346.981995 117.265404,341.150330 
	C118.211891,335.347015 121.950111,331.085114 127.544853,330.173035 
	C134.156403,329.095184 141.140610,328.592102 147.724640,329.524628 
	C154.683762,330.510315 161.362030,333.478943 168.673569,335.739227 
	C171.273163,330.027222 174.063736,323.895599 176.919312,317.621124 
	C176.028854,316.989136 175.406677,316.444550 174.697815,316.059570 
	C158.074982,307.030914 140.388184,304.264252 121.975105,308.286987 
	C99.899368,313.109924 87.957993,332.051178 92.815773,353.601776 
	C95.630379,366.088257 104.288795,373.615723 115.214554,378.759613 
	C123.319290,382.575348 131.817886,385.546387 140.067352,389.066376 
	C144.021820,390.753754 147.991287,392.544159 151.623886,394.815735 
	C157.300247,398.365417 160.073669,403.668915 159.256088,410.488098 
	C158.461243,417.117798 154.472488,421.421570 148.503418,423.733887 
	C137.583496,427.964081 126.562508,427.036102 115.745224,423.299377 
	C109.213188,421.042938 102.870628,418.238007 96.190178,415.578918 
	C93.254814,421.779724 90.361046,427.892670 87.419411,434.106720 
	C88.562798,434.955933 89.303024,435.617676 90.141838,436.112183 
	C107.392899,446.282806 125.990425,450.221924 145.834702,447.653046 
	C157.582642,446.132294 167.930298,441.523254 176.231735,431.705688 
M1310.368774,376.103729 
	C1307.157715,374.363403 1304.033447,372.433441 1300.719604,370.918091 
	C1290.445557,366.220154 1279.978882,361.928345 1269.822021,356.994781 
	C1262.523193,353.449371 1259.733154,347.736511 1260.822876,340.822815 
	C1261.794678,334.656769 1266.722534,329.604065 1274.506104,329.045227 
	C1281.355225,328.553436 1288.429932,329.285309 1295.220581,330.504700 
	C1300.643311,331.478485 1305.788330,333.998810 1311.258545,335.902893 
	C1313.946045,329.685120 1316.566284,323.623047 1319.152344,317.639923 
	C1302.610596,305.546204 1273.627686,302.985992 1255.898438,311.857269 
	C1239.156738,320.234467 1231.569702,339.578003 1237.918701,357.220123 
	C1242.286255,369.356384 1251.787964,375.959167 1262.859131,380.904480 
	C1272.709595,385.304474 1282.854980,389.105072 1292.432129,394.023438 
	C1295.953613,395.831848 1299.234497,399.637451 1300.852051,403.312531 
	C1304.459961,411.508850 1299.650024,420.453735 1290.355469,423.968201 
	C1279.718018,427.990387 1269.019653,426.852570 1258.553711,423.227539 
	C1252.491455,421.127747 1246.637329,418.427124 1240.320312,415.846069 
	C1237.362793,422.001526 1234.436035,428.092896 1231.149048,434.934174 
	C1237.017090,437.788757 1242.327148,440.946960 1248.028320,443.039062 
	C1266.287109,449.739410 1284.807861,451.149323 1303.124512,443.388580 
	C1333.174438,430.656433 1333.474609,389.626434 1310.368774,376.103729 
M889.724976,426.219879 
	C878.221802,425.451019 868.209106,420.263275 858.110291,415.066467 
	C854.972107,421.741638 852.026855,428.006592 848.966614,434.516113 
	C870.632446,448.353149 893.423767,452.795502 917.531677,444.495514 
	C942.709167,435.827301 951.799866,403.401154 935.345642,383.117584 
	C929.727783,376.192291 921.892944,372.423523 913.935059,368.914551 
	C904.966675,364.960022 895.834045,361.318359 887.125244,356.853241 
	C879.701965,353.047211 876.983643,347.454132 878.075195,341.173279 
	C879.187988,334.770447 884.657654,329.472626 892.695251,328.967285 
	C899.216125,328.557312 905.953857,329.325287 912.392944,330.596466 
	C917.642883,331.632904 922.593201,334.186890 927.826477,336.123505 
	C930.619629,329.837952 933.346924,323.700409 936.031250,317.659698 
	C918.653015,306.307617 893.913696,303.229187 876.627502,310.328033 
	C863.063721,315.898163 854.760620,325.837280 853.243713,340.711273 
	C851.804260,354.825134 856.515320,366.682098 868.661926,374.162598 
	C877.505737,379.609039 887.423096,383.297363 896.791382,387.912537 
	C902.129089,390.542114 907.840820,392.794037 912.475525,396.387848 
	C921.465759,403.359100 920.398804,415.909973 910.857788,422.164185 
	C904.681702,426.212616 897.741272,426.604126 889.724976,426.219879 
M992.716858,357.893311 
	C991.587463,357.189392 990.422180,356.536560 989.334778,355.772797 
	C984.344238,352.268036 981.396667,347.724976 982.402100,341.364502 
	C983.432556,334.846313 987.445618,330.831665 993.723694,329.583038 
	C998.078064,328.716949 1002.784851,327.911713 1007.050659,328.671417 
	C1015.652466,330.203400 1024.060913,332.820770 1033.099243,335.130981 
	C1035.488770,329.814789 1038.308838,323.540466 1041.232178,317.036621 
	C1022.439697,306.608948 1003.132202,303.195831 982.992737,309.668793 
	C968.375000,314.366974 959.027100,324.609802 957.276245,340.373688 
	C955.562866,355.800201 961.718201,367.793396 974.932983,375.743347 
	C981.023743,379.407471 987.723999,382.078247 994.218201,385.045746 
	C1000.109863,387.737976 1006.249023,389.924133 1012.005249,392.868835 
	C1020.083496,397.001434 1023.826965,403.428040 1022.882141,410.286957 
	C1021.831787,417.911224 1016.906799,422.969696 1008.066650,425.177948 
	C999.963562,427.202148 991.781372,427.024017 983.898926,424.406128 
	C976.861145,422.068695 970.070862,418.986237 962.685486,416.038635 
	C959.807617,421.947449 956.785400,428.152557 953.638733,434.613312 
	C973.344360,447.335144 994.181946,451.785858 1016.527283,446.106598 
	C1035.604370,441.257996 1046.175415,428.237823 1047.568726,409.711304 
	C1048.881104,392.258087 1040.678955,379.445740 1022.568909,371.098267 
	C1012.910400,366.646332 1003.110107,362.501801 992.716858,357.893311 
M654.493042,424.422607 
	C652.710815,424.422607 650.928589,424.422607 648.580566,424.422607 
	C648.580566,385.600983 648.580566,347.239624 648.580566,308.627991 
	C640.083008,308.627991 632.157166,308.627991 624.029053,308.627991 
	C624.029053,354.654144 624.029053,400.536499 624.029053,446.547485 
	C652.453003,446.547485 680.566345,446.547485 708.809448,446.547485 
	C708.809448,439.122528 708.809448,431.906616 708.809448,424.800598 
	C708.100220,424.606323 707.781799,424.443085 707.463257,424.442749 
	C690.139893,424.423920 672.816528,424.418762 654.493042,424.422607 
M745.019043,618.578796 
	C766.613770,607.963074 766.282532,580.929321 747.744690,569.015076 
	C735.352478,561.050659 714.880493,562.245239 703.520325,571.773560 
	C688.124634,584.686768 690.190979,607.894653 707.795776,617.641907 
	C719.659546,624.210693 731.970825,624.038452 745.019043,618.578796 
M1088.194336,564.737610 
	C1086.938354,565.787903 1085.132812,566.583862 1084.511230,567.927612 
	C1077.946777,582.118408 1071.552368,596.388000 1065.156860,610.656494 
	C1063.638428,614.044006 1062.291138,617.508240 1060.790894,621.115723 
	C1069.777344,621.899597 1069.774292,621.898254 1073.096558,614.313843 
	C1073.764282,612.789734 1074.141968,610.968567 1075.230347,609.841248 
	C1076.630127,608.391235 1078.531982,606.710754 1080.359009,606.525818 
	C1085.306152,606.025085 1090.401489,606.779907 1095.303467,606.086121 
	C1102.816650,605.022766 1106.560059,608.050842 1108.978394,615.032959 
	C1111.649292,622.744751 1112.193604,622.577087 1120.905396,620.796936 
	C1120.046753,618.804932 1119.229492,616.854553 1118.369995,614.923035 
	C1111.958740,600.515137 1105.246094,586.230713 1099.279419,571.641235 
	C1097.162109,566.463745 1094.837036,563.477722 1088.194336,564.737610 
M797.573486,564.778442 
	C794.464966,564.778442 791.356445,564.778442 788.194214,564.778442 
	C788.194214,583.932922 788.194214,602.495117 788.194214,621.186890 
	C791.288330,621.186890 794.055176,621.186890 797.207397,621.186890 
	C797.207397,614.653076 797.207397,608.380676 797.207397,601.674866 
	C803.215027,601.674866 808.845032,601.813110 814.465393,601.640381 
	C821.727356,601.417236 828.444702,599.385010 832.848206,593.227173 
	C840.957764,581.886658 833.711609,567.019592 819.008789,565.213928 
	C812.273315,564.386841 805.375427,564.881775 797.573486,564.778442 
M1118.911011,389.396332 
	C1123.413086,398.446014 1132.255859,402.905792 1141.908203,400.994751 
	C1150.654663,399.263092 1157.673706,391.502319 1158.108276,383.082794 
	C1158.523560,375.032074 1154.397461,367.892853 1147.285278,364.432465 
	C1138.918457,360.361633 1131.119263,361.487091 1124.124756,367.425140 
	C1117.391602,373.141357 1116.172974,380.466156 1118.911011,389.396332 
M1028.016113,575.171875 
	C1029.729126,576.117554 1031.442139,577.063171 1033.346558,578.114563 
	C1034.897705,576.146606 1036.317017,574.345825 1037.717163,572.569397 
	C1027.724854,561.959656 1006.580261,560.827393 993.772827,569.983948 
	C986.408508,575.248962 982.227844,582.309753 981.577454,591.317383 
	C980.645325,604.227295 987.114075,614.578918 999.180603,619.826721 
	C1012.122437,625.455200 1028.998657,622.342834 1038.177246,612.429932 
	C1036.696533,610.776917 1035.196045,609.101990 1033.620605,607.343201 
	C1026.227295,613.118774 1018.211670,615.157898 1009.379211,613.905701 
	C999.082458,612.445862 991.727600,604.634949 991.071960,594.561462 
	C990.424805,584.616638 996.960449,575.598083 1006.833740,573.017517 
	C1013.848450,571.183960 1020.696045,571.875488 1028.016113,575.171875 
M877.773926,573.784790 
	C877.773926,589.544678 877.773926,605.304626 877.773926,621.054260 
	C881.316223,621.054260 884.198792,621.054260 887.409302,621.054260 
	C887.409302,604.907288 887.409302,589.131042 887.409302,572.745117 
	C894.972046,572.745117 902.216187,572.745117 909.600952,572.745117 
	C909.600952,569.847595 909.600952,567.563965 909.600952,565.053040 
	C891.363464,565.053040 873.318176,565.053040 855.149048,565.053040 
	C855.149048,567.681152 855.149048,569.958984 855.149048,573.031616 
	C862.617798,573.031616 869.898987,573.031616 877.773926,573.784790 
M940.162354,588.499878 
	C940.162354,599.275452 940.162354,610.050964 940.162354,621.064148 
	C943.388672,621.064148 946.257751,621.064148 949.493042,621.064148 
	C949.493042,611.447144 949.493042,602.162109 949.493042,592.877075 
	C949.493042,583.625854 949.493042,574.374573 949.493042,565.177063 
	C946.105347,565.177063 943.247803,565.177063 940.161377,565.177063 
	C940.161377,572.889648 940.161377,580.194824 940.162354,588.499878 
M1169.849365,373.337036 
	C1173.500488,370.185181 1177.151611,367.033295 1181.867065,362.962616 
	C1172.714478,363.951965 1165.219971,364.762085 1157.576172,365.588318 
	C1159.761963,370.120514 1161.686768,374.111725 1163.657349,378.197784 
	C1165.663574,376.640778 1167.486694,375.225952 1169.849365,373.337036 
M1106.958862,374.460205 
	C1108.612061,375.754181 1110.265137,377.048187 1111.847656,378.286835 
	C1113.842651,373.972931 1115.703491,369.949158 1117.708740,365.613007 
	C1109.912109,364.851532 1102.395752,364.117432 1094.879517,363.383331 
	C1094.766113,363.705688 1094.652710,364.028046 1094.539307,364.350403 
	C1098.491821,367.577240 1102.444214,370.804108 1106.958862,374.460205 
M1106.671143,392.196106 
	C1103.148315,395.542572 1099.625366,398.889008 1095.188232,403.103943 
	C1103.965088,401.984131 1111.442505,401.030090 1118.847046,400.085388 
	C1116.418945,395.541351 1114.300659,391.577240 1112.014648,387.299103 
	C1110.316772,388.841614 1108.742432,390.271912 1106.671143,392.196106 
M1160.962280,392.255066 
	C1159.413940,394.749878 1157.865723,397.244659 1156.026123,400.208801 
	C1163.726074,401.155396 1171.195190,402.073639 1177.458984,402.843689 
	C1173.094238,397.908569 1168.413086,392.615540 1163.488647,387.047668 
	C1162.547607,388.930420 1161.891479,390.243011 1160.962280,392.255066 
M1135.322266,342.813721 
	C1133.319092,347.991791 1131.315796,353.169861 1129.442749,358.011505 
	C1134.701660,358.011505 1139.757690,358.011505 1145.272705,358.011505 
	C1142.688721,351.190277 1140.236450,344.716766 1137.568726,337.674622 
	C1136.781006,339.525635 1136.222778,340.837616 1135.322266,342.813721 
M1137.448364,424.357239 
	C1140.226685,418.276215 1143.005005,412.195190 1145.954590,405.739197 
	C1139.925537,405.739197 1134.934326,405.739197 1129.627197,405.739197 
	C1132.160767,411.935852 1134.593018,417.884644 1137.448364,424.357239 
M730.192078,549.706604 
	C727.893250,552.257629 723.380737,553.840515 726.245544,559.254761 
	C729.504211,557.388855 732.401978,555.497925 735.494995,554.014160 
	C739.864807,551.917908 740.458008,549.011047 737.868286,544.606201 
	C735.398132,546.221924 733.077698,547.739685 730.192078,549.706604 
z"/>
<path fill="#F5F5F5" opacity="1.000000" stroke="none" 
	d="
M501.000000,529.849854 
	C361.694275,529.849792 222.888580,529.849792 83.768738,529.849792 
	C83.768738,526.454651 83.768738,523.380310 83.768738,520.024170 
	C630.994141,520.024170 1178.092163,520.024170 1725.502808,520.024170 
	C1725.502808,523.187744 1725.502808,526.242737 1725.502808,529.849854 
	C1317.378784,529.849854 909.439392,529.849854 501.000000,529.849854 
z"/>
<path fill="#F9F9FA" opacity="1.000000" stroke="none" 
	d="
M456.226288,438.919373 
	C456.220581,441.561310 456.220581,443.716034 456.220581,446.661896 
	C448.539948,446.661896 441.121857,446.803345 433.719482,446.525269 
	C432.458282,446.477905 430.971436,444.841644 430.082825,443.588928 
	C410.146942,415.486115 390.279877,387.334442 370.401215,359.191010 
	C368.295502,356.209839 366.198181,353.222717 363.319672,349.134338 
	C363.319672,382.260651 363.319672,414.182404 363.319672,446.424255 
	C354.945526,446.424255 347.189697,446.424255 339.053467,446.424255 
	C339.053467,400.654663 339.053467,354.924042 339.053467,308.341980 
	C346.521820,308.341980 354.107605,308.198822 361.676483,308.492310 
	C362.847168,308.537750 364.131470,310.448883 365.041168,311.726532 
	C386.862427,342.373047 408.639313,373.051117 430.431305,403.718475 
	C430.620148,403.984222 430.904541,404.182068 431.685425,404.929504 
	C431.685425,372.637665 431.685425,340.857849 431.685425,308.710327 
	C439.956818,308.710327 447.700256,308.710327 456.231995,308.710327 
	C456.231995,351.956573 456.231995,395.194366 456.226288,438.919373 
z"/>
<path fill="#F9F8F9" opacity="1.000000" stroke="none" 
	d="
M1527.152100,446.779480 
	C1491.510132,438.289734 1469.768799,403.843811 1476.257568,366.697296 
	C1481.660889,335.764679 1502.759155,312.982849 1530.702759,307.907623 
	C1571.808838,300.441742 1609.587891,330.135071 1611.731079,371.889557 
	C1613.302002,402.495087 1602.122314,426.624908 1574.300903,441.367889 
	C1559.577148,449.170349 1543.727417,450.009186 1527.152100,446.779480 
M1543.464966,426.000427 
	C1557.612671,425.445618 1569.306519,420.086212 1577.591919,408.301788 
	C1589.263062,391.701660 1589.391357,365.062408 1577.984131,348.232269 
	C1559.764160,321.350525 1520.539673,324.039886 1506.141602,353.087189 
	C1501.158081,363.141052 1500.169189,373.766846 1500.915894,384.697510 
	C1502.493652,407.792969 1519.463257,424.580200 1543.464966,426.000427 
z"/>
<path fill="#F9F9F9" opacity="1.000000" stroke="none" 
	d="
M535.651367,307.695190 
	C557.375671,304.813354 577.107178,308.576996 595.155762,321.500519 
	C591.420593,328.072357 587.840637,334.371277 584.128723,340.902283 
	C574.962219,335.132385 565.737549,330.891357 555.195190,329.789459 
	C520.489929,326.161987 499.449768,355.043762 503.510254,385.067261 
	C507.766357,416.537354 535.391052,433.175476 566.252502,423.554260 
	C577.495728,420.049133 577.514099,420.049255 577.606567,408.512024 
	C577.651978,402.850983 577.614502,397.189301 577.614502,391.027100 
	C567.691895,391.027100 557.956238,391.027100 547.817871,391.027100 
	C547.817871,383.815186 547.817871,377.095642 547.817871,370.134735 
	C565.564819,370.134735 583.170959,370.134735 601.305603,370.134735 
	C601.305603,372.003723 601.309570,373.788788 601.304993,375.573883 
	C601.260864,392.732452 601.131653,409.891571 601.245544,427.049103 
	C601.266541,430.218628 600.449158,432.210449 597.685852,433.945068 
	C576.977844,446.944366 554.629578,451.422821 530.657288,446.679504 
	C500.730713,440.758057 479.461243,415.095093 477.463562,383.015961 
	C475.169617,346.178619 499.258270,314.798676 535.651367,307.695190 
z"/>
<path fill="#FAF9FA" opacity="1.000000" stroke="none" 
	d="
M1455.310425,377.000702 
	C1455.309692,400.313202 1455.309692,423.125702 1455.309692,446.332977 
	C1447.125488,446.332977 1439.225464,446.332977 1430.768555,446.332977 
	C1430.768555,426.443756 1430.768555,406.382721 1430.768555,386.061523 
	C1410.639526,386.061523 1391.060303,386.061523 1371.020020,386.061523 
	C1371.020020,406.178894 1371.020020,426.105927 1371.020020,446.370667 
	C1362.500977,446.370667 1354.437256,446.370667 1346.098389,446.370667 
	C1346.098389,400.472473 1346.098389,354.710419 1346.098389,308.613617 
	C1354.226318,308.613617 1362.299194,308.613617 1370.718262,308.613617 
	C1370.718262,327.029022 1370.718262,345.140198 1370.718262,363.610840 
	C1390.628052,363.610840 1410.196045,363.610840 1430.347168,363.610840 
	C1430.347168,345.412811 1430.347168,327.198090 1430.347168,308.659302 
	C1438.834229,308.659302 1446.746582,308.659302 1455.311157,308.659302 
	C1455.311157,331.292114 1455.311157,353.896393 1455.310425,377.000702 
z"/>
<path fill="#F8F7F8" opacity="1.000000" stroke="none" 
	d="
M313.741821,362.000336 
	C313.741974,374.164337 313.900238,385.830963 313.706848,397.491730 
	C313.262146,424.308533 297.419464,442.972168 270.993652,447.398468 
	C254.977661,450.081116 239.337692,448.755371 225.148010,439.941223 
	C211.152954,431.247955 203.918396,417.922150 203.532562,401.997589 
	C202.782410,371.036499 203.312897,340.044403 203.312897,308.709717 
	C211.322693,308.709717 219.232925,308.709717 227.926727,308.709717 
	C227.926727,310.650696 227.926300,312.558899 227.926788,314.467133 
	C227.933548,341.294891 227.851120,368.123077 227.989395,394.950165 
	C228.048187,406.356934 231.153717,416.480957 242.269073,422.096313 
	C253.828415,427.935913 265.410828,427.921234 276.520599,420.974396 
	C286.190552,414.927826 288.805359,405.264618 288.841858,394.646484 
	C288.934601,367.652527 288.896729,340.658081 288.910950,313.663849 
	C288.911804,312.046753 288.911072,310.429626 288.911072,308.565613 
	C297.283997,308.565613 305.209900,308.565613 313.740265,308.565613 
	C313.740265,326.312195 313.740265,343.906250 313.741821,362.000336 
z"/>
<path fill="#F8F8F9" opacity="1.000000" stroke="none" 
	d="
M766.015564,411.996521 
	C752.491272,412.048218 752.496155,412.049896 748.367310,424.195465 
	C746.177063,430.638153 743.926147,437.060547 741.786438,443.519897 
	C741.024902,445.818604 739.900879,446.924438 737.193787,446.826202 
	C730.542297,446.584778 723.876465,446.743744 717.216370,446.733124 
	C716.720032,446.732330 716.223877,446.663330 715.087585,446.577881 
	C732.298218,400.489410 749.437866,354.591095 766.650940,308.496185 
	C775.204895,308.496185 783.829346,308.496185 792.647339,308.496185 
	C809.635376,354.377136 826.591675,400.172272 843.816528,446.692841 
	C835.130615,446.692841 827.345459,446.838715 819.577637,446.537964 
	C818.391418,446.492035 816.746643,444.580933 816.229126,443.191589 
	C812.804138,433.996429 809.516846,424.745209 806.442810,415.427063 
	C805.552795,412.729065 804.299255,411.874115 801.477295,411.915741 
	C789.824524,412.087769 778.167847,411.992645 766.015564,411.996521 
M787.696594,361.832306 
	C784.841919,353.793640 781.987244,345.755005 778.824463,336.848572 
	C772.295227,355.319611 766.150024,372.704437 759.958801,390.219482 
	C772.715271,390.219482 784.872253,390.219482 797.389587,390.219482 
	C794.152100,380.710693 791.062866,371.637360 787.696594,361.832306 
z"/>
<path fill="#F9F9FA" opacity="1.000000" stroke="none" 
	d="
M1630.639160,313.369080 
	C1630.735596,311.454102 1630.829468,309.997711 1630.917847,308.623993 
	C1648.761841,308.623993 1666.288452,307.834167 1683.709229,308.853210 
	C1700.083374,309.811066 1714.026611,316.331268 1721.705688,332.288300 
	C1735.580444,361.119934 1717.009399,393.811798 1685.161621,396.015472 
	C1675.389648,396.691620 1665.531372,396.120453 1655.234375,396.120453 
	C1655.234375,413.274261 1655.234375,429.686066 1655.234375,446.412415 
	C1646.992310,446.412415 1639.221313,446.412415 1630.636597,446.412415 
	C1630.636597,402.275940 1630.636597,358.051788 1630.639160,313.369080 
M1682.850952,331.156738 
	C1673.751465,331.156738 1664.652100,331.156738 1655.348145,331.156738 
	C1655.348145,345.945923 1655.348145,360.651276 1655.348145,375.721954 
	C1662.594360,375.721954 1669.552979,375.758820 1676.510620,375.694916 
	C1678.161133,375.679749 1679.817261,375.382385 1681.455688,375.120514 
	C1693.695312,373.164459 1700.570068,365.897736 1701.155518,354.332611 
	C1701.785645,341.889282 1696.199951,334.526917 1682.850952,331.156738 
z"/>
<path fill="#F9F9F9" opacity="1.000000" stroke="none" 
	d="
M176.021576,431.995026 
	C167.930298,441.523254 157.582642,446.132294 145.834702,447.653046 
	C125.990425,450.221924 107.392899,446.282806 90.141838,436.112183 
	C89.303024,435.617676 88.562798,434.955933 87.419411,434.106720 
	C90.361046,427.892670 93.254814,421.779724 96.190178,415.578918 
	C102.870628,418.238007 109.213188,421.042938 115.745224,423.299377 
	C126.562508,427.036102 137.583496,427.964081 148.503418,423.733887 
	C154.472488,421.421570 158.461243,417.117798 159.256088,410.488098 
	C160.073669,403.668915 157.300247,398.365417 151.623886,394.815735 
	C147.991287,392.544159 144.021820,390.753754 140.067352,389.066376 
	C131.817886,385.546387 123.319290,382.575348 115.214554,378.759613 
	C104.288795,373.615723 95.630379,366.088257 92.815773,353.601776 
	C87.957993,332.051178 99.899368,313.109924 121.975105,308.286987 
	C140.388184,304.264252 158.074982,307.030914 174.697815,316.059570 
	C175.406677,316.444550 176.028854,316.989136 176.919312,317.621124 
	C174.063736,323.895599 171.273163,330.027222 168.673569,335.739227 
	C161.362030,333.478943 154.683762,330.510315 147.724640,329.524628 
	C141.140610,328.592102 134.156403,329.095184 127.544853,330.173035 
	C121.950111,331.085114 118.211891,335.347015 117.265404,341.150330 
	C116.314285,346.981995 118.747475,351.910126 123.614624,354.825958 
	C129.424026,358.306244 135.722061,360.993988 141.893661,363.840240 
	C148.526947,366.899475 155.438858,369.396576 161.915878,372.744965 
	C185.541885,384.958893 191.508163,409.911652 176.021576,431.995026 
z"/>
<path fill="#F9F9F9" opacity="1.000000" stroke="none" 
	d="
M1310.662720,376.312408 
	C1333.474609,389.626434 1333.174438,430.656433 1303.124512,443.388580 
	C1284.807861,451.149323 1266.287109,449.739410 1248.028320,443.039062 
	C1242.327148,440.946960 1237.017090,437.788757 1231.149048,434.934174 
	C1234.436035,428.092896 1237.362793,422.001526 1240.320312,415.846069 
	C1246.637329,418.427124 1252.491455,421.127747 1258.553711,423.227539 
	C1269.019653,426.852570 1279.718018,427.990387 1290.355469,423.968201 
	C1299.650024,420.453735 1304.459961,411.508850 1300.852051,403.312531 
	C1299.234497,399.637451 1295.953613,395.831848 1292.432129,394.023438 
	C1282.854980,389.105072 1272.709595,385.304474 1262.859131,380.904480 
	C1251.787964,375.959167 1242.286255,369.356384 1237.918701,357.220123 
	C1231.569702,339.578003 1239.156738,320.234467 1255.898438,311.857269 
	C1273.627686,302.985992 1302.610596,305.546204 1319.152344,317.639923 
	C1316.566284,323.623047 1313.946045,329.685120 1311.258545,335.902893 
	C1305.788330,333.998810 1300.643311,331.478485 1295.220581,330.504700 
	C1288.429932,329.285309 1281.355225,328.553436 1274.506104,329.045227 
	C1266.722534,329.604065 1261.794678,334.656769 1260.822876,340.822815 
	C1259.733154,347.736511 1262.523193,353.449371 1269.822021,356.994781 
	C1279.978882,361.928345 1290.445557,366.220154 1300.719604,370.918091 
	C1304.033447,372.433441 1307.157715,374.363403 1310.662720,376.312408 
z"/>
<path fill="#F9F9F9" opacity="1.000000" stroke="none" 
	d="
M890.193970,426.241943 
	C897.741272,426.604126 904.681702,426.212616 910.857788,422.164185 
	C920.398804,415.909973 921.465759,403.359100 912.475525,396.387848 
	C907.840820,392.794037 902.129089,390.542114 896.791382,387.912537 
	C887.423096,383.297363 877.505737,379.609039 868.661926,374.162598 
	C856.515320,366.682098 851.804260,354.825134 853.243713,340.711273 
	C854.760620,325.837280 863.063721,315.898163 876.627502,310.328033 
	C893.913696,303.229187 918.653015,306.307617 936.031250,317.659698 
	C933.346924,323.700409 930.619629,329.837952 927.826477,336.123505 
	C922.593201,334.186890 917.642883,331.632904 912.392944,330.596466 
	C905.953857,329.325287 899.216125,328.557312 892.695251,328.967285 
	C884.657654,329.472626 879.187988,334.770447 878.075195,341.173279 
	C876.983643,347.454132 879.701965,353.047211 887.125244,356.853241 
	C895.834045,361.318359 904.966675,364.960022 913.935059,368.914551 
	C921.892944,372.423523 929.727783,376.192291 935.345642,383.117584 
	C951.799866,403.401154 942.709167,435.827301 917.531677,444.495514 
	C893.423767,452.795502 870.632446,448.353149 848.966614,434.516113 
	C852.026855,428.006592 854.972107,421.741638 858.110291,415.066467 
	C868.209106,420.263275 878.221802,425.451019 890.193970,426.241943 
z"/>
<path fill="#F9F9F9" opacity="1.000000" stroke="none" 
	d="
M993.045349,358.055908 
	C1003.110107,362.501801 1012.910400,366.646332 1022.568909,371.098267 
	C1040.678955,379.445740 1048.881104,392.258087 1047.568726,409.711304 
	C1046.175415,428.237823 1035.604370,441.257996 1016.527283,446.106598 
	C994.181946,451.785858 973.344360,447.335144 953.638733,434.613312 
	C956.785400,428.152557 959.807617,421.947449 962.685486,416.038635 
	C970.070862,418.986237 976.861145,422.068695 983.898926,424.406128 
	C991.781372,427.024017 999.963562,427.202148 1008.066650,425.177948 
	C1016.906799,422.969696 1021.831787,417.911224 1022.882141,410.286957 
	C1023.826965,403.428040 1020.083496,397.001434 1012.005249,392.868835 
	C1006.249023,389.924133 1000.109863,387.737976 994.218201,385.045746 
	C987.723999,382.078247 981.023743,379.407471 974.932983,375.743347 
	C961.718201,367.793396 955.562866,355.800201 957.276245,340.373688 
	C959.027100,324.609802 968.375000,314.366974 982.992737,309.668793 
	C1003.132202,303.195831 1022.439697,306.608948 1041.232178,317.036621 
	C1038.308838,323.540466 1035.488770,329.814789 1033.099243,335.130981 
	C1024.060913,332.820770 1015.652466,330.203400 1007.050659,328.671417 
	C1002.784851,327.911713 998.078064,328.716949 993.723694,329.583038 
	C987.445618,330.831665 983.432556,334.846313 982.402100,341.364502 
	C981.396667,347.724976 984.344238,352.268036 989.334778,355.772797 
	C990.422180,356.536560 991.587463,357.189392 993.045349,358.055908 
z"/>
<path fill="#F6F5F6" opacity="1.000000" stroke="none" 
	d="
M654.993103,424.417419 
	C672.816528,424.418762 690.139893,424.423920 707.463257,424.442749 
	C707.781799,424.443085 708.100220,424.606323 708.809448,424.800598 
	C708.809448,431.906616 708.809448,439.122528 708.809448,446.547485 
	C680.566345,446.547485 652.453003,446.547485 624.029053,446.547485 
	C624.029053,400.536499 624.029053,354.654144 624.029053,308.627991 
	C632.157166,308.627991 640.083008,308.627991 648.580566,308.627991 
	C648.580566,347.239624 648.580566,385.600983 648.580566,424.422607 
	C650.928589,424.422607 652.710815,424.422607 654.993103,424.417419 
z"/>
<path fill="#F1F1F1" opacity="1.000000" stroke="none" 
	d="
M744.685059,618.751282 
	C731.970825,624.038452 719.659546,624.210693 707.795776,617.641907 
	C690.190979,607.894653 688.124634,584.686768 703.520325,571.773560 
	C714.880493,562.245239 735.352478,561.050659 747.744690,569.015076 
	C766.282532,580.929321 766.613770,607.963074 744.685059,618.751282 
M734.455933,572.666199 
	C728.255005,573.172424 721.730835,572.635925 715.930359,574.434021 
	C707.635559,577.005493 703.205505,583.723755 702.779663,592.580078 
	C702.385803,600.771423 706.924255,608.646790 714.804993,611.490723 
	C719.800293,613.293274 725.484070,614.172241 730.789246,613.930725 
	C742.528870,613.396118 750.769958,605.533997 751.817627,595.104614 
	C752.866760,584.660522 746.698730,576.365967 734.455933,572.666199 
z"/>
<path fill="#EFEFEF" opacity="1.000000" stroke="none" 
	d="
M1088.595215,564.738647 
	C1094.837036,563.477722 1097.162109,566.463745 1099.279419,571.641235 
	C1105.246094,586.230713 1111.958740,600.515137 1118.369995,614.923035 
	C1119.229492,616.854553 1120.046753,618.804932 1120.905396,620.796936 
	C1112.193604,622.577087 1111.649292,622.744751 1108.978394,615.032959 
	C1106.560059,608.050842 1102.816650,605.022766 1095.303467,606.086121 
	C1090.401489,606.779907 1085.306152,606.025085 1080.359009,606.525818 
	C1078.531982,606.710754 1076.630127,608.391235 1075.230347,609.841248 
	C1074.141968,610.968567 1073.764282,612.789734 1073.096558,614.313843 
	C1069.774292,621.898254 1069.777344,621.899597 1060.790894,621.115723 
	C1062.291138,617.508240 1063.638428,614.044006 1065.156860,610.656494 
	C1071.552368,596.388000 1077.946777,582.118408 1084.511230,567.927612 
	C1085.132812,566.583862 1086.938354,565.787903 1088.595215,564.738647 
M1097.231445,598.916443 
	C1098.570190,598.791626 1099.908936,598.666809 1101.614136,598.507812 
	C1098.021606,589.916199 1094.718872,582.017822 1091.027100,573.188904 
	C1087.091919,582.169128 1083.546753,590.259033 1079.749634,598.924133 
	C1085.729248,598.924133 1091.010742,598.924133 1097.231445,598.916443 
z"/>
<path fill="#EFEFEF" opacity="1.000000" stroke="none" 
	d="
M798.062378,564.777832 
	C805.375427,564.881775 812.273315,564.386841 819.008789,565.213928 
	C833.711609,567.019592 840.957764,581.886658 832.848206,593.227173 
	C828.444702,599.385010 821.727356,601.417236 814.465393,601.640381 
	C808.845032,601.813110 803.215027,601.674866 797.207397,601.674866 
	C797.207397,608.380676 797.207397,614.653076 797.207397,621.186890 
	C794.055176,621.186890 791.288330,621.186890 788.194214,621.186890 
	C788.194214,602.495117 788.194214,583.932922 788.194214,564.778442 
	C791.356445,564.778442 794.464966,564.778442 798.062378,564.777832 
M815.142944,572.664978 
	C809.241821,572.664978 803.340698,572.664978 797.525208,572.664978 
	C797.525208,580.234375 797.525208,587.098877 797.525208,594.035583 
	C803.730835,594.035583 809.564209,594.385254 815.337341,593.945251 
	C822.233032,593.419800 826.147278,589.260254 826.306702,583.267456 
	C826.465332,577.305359 823.314758,574.081299 815.142944,572.664978 
z"/>
<path fill="#FAF9FA" opacity="1.000000" stroke="none" 
	d="
M1118.798340,389.023712 
	C1116.172974,380.466156 1117.391602,373.141357 1124.124756,367.425140 
	C1131.119263,361.487091 1138.918457,360.361633 1147.285278,364.432465 
	C1154.397461,367.892853 1158.523560,375.032074 1158.108276,383.082794 
	C1157.673706,391.502319 1150.654663,399.263092 1141.908203,400.994751 
	C1132.255859,402.905792 1123.413086,398.446014 1118.798340,389.023712 
z"/>
<path fill="#F1F1F1" opacity="1.000000" stroke="none" 
	d="
M1027.663086,575.010864 
	C1020.696045,571.875488 1013.848450,571.183960 1006.833740,573.017517 
	C996.960449,575.598083 990.424805,584.616638 991.071960,594.561462 
	C991.727600,604.634949 999.082458,612.445862 1009.379211,613.905701 
	C1018.211670,615.157898 1026.227295,613.118774 1033.620605,607.343201 
	C1035.196045,609.101990 1036.696533,610.776917 1038.177246,612.429932 
	C1028.998657,622.342834 1012.122437,625.455200 999.180603,619.826721 
	C987.114075,614.578918 980.645325,604.227295 981.577454,591.317383 
	C982.227844,582.309753 986.408508,575.248962 993.772827,569.983948 
	C1006.580261,560.827393 1027.724854,561.959656 1037.717163,572.569397 
	C1036.317017,574.345825 1034.897705,576.146606 1033.346558,578.114563 
	C1031.442139,577.063171 1029.729126,576.117554 1027.663086,575.010864 
z"/>
<path fill="#F3F3F3" opacity="1.000000" stroke="none" 
	d="
M877.477051,573.408203 
	C869.898987,573.031616 862.617798,573.031616 855.149048,573.031616 
	C855.149048,569.958984 855.149048,567.681152 855.149048,565.053040 
	C873.318176,565.053040 891.363464,565.053040 909.600952,565.053040 
	C909.600952,567.563965 909.600952,569.847595 909.600952,572.745117 
	C902.216187,572.745117 894.972046,572.745117 887.409302,572.745117 
	C887.409302,589.131042 887.409302,604.907288 887.409302,621.054260 
	C884.198792,621.054260 881.316223,621.054260 877.773926,621.054260 
	C877.773926,605.304626 877.773926,589.544678 877.477051,573.408203 
z"/>
<path fill="#EBEBEB" opacity="1.000000" stroke="none" 
	d="
M940.161865,587.999878 
	C940.161377,580.194824 940.161377,572.889648 940.161377,565.177063 
	C943.247803,565.177063 946.105347,565.177063 949.493042,565.177063 
	C949.493042,574.374573 949.493042,583.625854 949.493042,592.877075 
	C949.493042,602.162109 949.493042,611.447144 949.493042,621.064148 
	C946.257751,621.064148 943.388672,621.064148 940.162354,621.064148 
	C940.162354,610.050964 940.162354,599.275452 940.161865,587.999878 
z"/>
<path fill="#EBEBEB" opacity="1.000000" stroke="none" 
	d="
M1169.579590,373.574097 
	C1167.486694,375.225952 1165.663574,376.640778 1163.657349,378.197784 
	C1161.686768,374.111725 1159.761963,370.120514 1157.576172,365.588318 
	C1165.219971,364.762085 1172.714478,363.951965 1181.867065,362.962616 
	C1177.151611,367.033295 1173.500488,370.185181 1169.579590,373.574097 
z"/>
<path fill="#EBEBEB" opacity="1.000000" stroke="none" 
	d="
M1106.677734,374.245605 
	C1102.444214,370.804108 1098.491821,367.577240 1094.539307,364.350403 
	C1094.652710,364.028046 1094.766113,363.705688 1094.879517,363.383331 
	C1102.395752,364.117432 1109.912109,364.851532 1117.708740,365.613007 
	C1115.703491,369.949158 1113.842651,373.972931 1111.847656,378.286835 
	C1110.265137,377.048187 1108.612061,375.754181 1106.677734,374.245605 
z"/>
<path fill="#EBEBEB" opacity="1.000000" stroke="none" 
	d="
M1106.919678,391.949158 
	C1108.742432,390.271912 1110.316772,388.841614 1112.014648,387.299103 
	C1114.300659,391.577240 1116.418945,395.541351 1118.847046,400.085388 
	C1111.442505,401.030090 1103.965088,401.984131 1095.188232,403.103943 
	C1099.625366,398.889008 1103.148315,395.542572 1106.919678,391.949158 
z"/>
<path fill="#EFEFEF" opacity="1.000000" stroke="none" 
	d="
M1161.098877,391.905334 
	C1161.891479,390.243011 1162.547607,388.930420 1163.488647,387.047668 
	C1168.413086,392.615540 1173.094238,397.908569 1177.458984,402.843689 
	C1171.195190,402.073639 1163.726074,401.155396 1156.026123,400.208801 
	C1157.865723,397.244659 1159.413940,394.749878 1161.098877,391.905334 
z"/>
<path fill="#EBEBEB" opacity="1.000000" stroke="none" 
	d="
M1135.493408,342.481628 
	C1136.222778,340.837616 1136.781006,339.525635 1137.568726,337.674622 
	C1140.236450,344.716766 1142.688721,351.190277 1145.272705,358.011505 
	C1139.757690,358.011505 1134.701660,358.011505 1129.442749,358.011505 
	C1131.315796,353.169861 1133.319092,347.991791 1135.493408,342.481628 
z"/>
<path fill="#EBEBEB" opacity="1.000000" stroke="none" 
	d="
M1137.236816,424.095337 
	C1134.593018,417.884644 1132.160767,411.935852 1129.627197,405.739197 
	C1134.934326,405.739197 1139.925537,405.739197 1145.954590,405.739197 
	C1143.005005,412.195190 1140.226685,418.276215 1137.236816,424.095337 
z"/>
<path fill="#EBEBEB" opacity="1.000000" stroke="none" 
	d="
M730.474731,549.482056 
	C733.077698,547.739685 735.398132,546.221924 737.868286,544.606201 
	C740.458008,549.011047 739.864807,551.917908 735.494995,554.014160 
	C732.401978,555.497925 729.504211,557.388855 726.245544,559.254761 
	C723.380737,553.840515 727.893250,552.257629 730.474731,549.482056 
z"/>
<path fill="#060507" opacity="1.000000" stroke="none" 
	d="
M1543.016357,425.999512 
	C1519.463257,424.580200 1502.493652,407.792969 1500.915894,384.697510 
	C1500.169189,373.766846 1501.158081,363.141052 1506.141602,353.087189 
	C1520.539673,324.039886 1559.764160,321.350525 1577.984131,348.232269 
	C1589.391357,365.062408 1589.263062,391.701660 1577.591919,408.301788 
	C1569.306519,420.086212 1557.612671,425.445618 1543.016357,425.999512 
z"/>
<path fill="#0B0B0C" opacity="1.000000" stroke="none" 
	d="
M787.835083,362.198181 
	C791.062866,371.637360 794.152100,380.710693 797.389587,390.219482 
	C784.872253,390.219482 772.715271,390.219482 759.958801,390.219482 
	C766.150024,372.704437 772.295227,355.319611 778.824463,336.848572 
	C781.987244,345.755005 784.841919,353.793640 787.835083,362.198181 
z"/>
<path fill="#080809" opacity="1.000000" stroke="none" 
	d="
M1683.277588,331.243652 
	C1696.199951,334.526917 1701.785645,341.889282 1701.155518,354.332611 
	C1700.570068,365.897736 1693.695312,373.164459 1681.455688,375.120514 
	C1679.817261,375.382385 1678.161133,375.679749 1676.510620,375.694916 
	C1669.552979,375.758820 1662.594360,375.721954 1655.348145,375.721954 
	C1655.348145,360.651276 1655.348145,345.945923 1655.348145,331.156738 
	C1664.652100,331.156738 1673.751465,331.156738 1683.277588,331.243652 
z"/>
<path fill="#080809" opacity="1.000000" stroke="none" 
	d="
M734.862915,572.758911 
	C746.698730,576.365967 752.866760,584.660522 751.817627,595.104614 
	C750.769958,605.533997 742.528870,613.396118 730.789246,613.930725 
	C725.484070,614.172241 719.800293,613.293274 714.804993,611.490723 
	C706.924255,608.646790 702.385803,600.771423 702.779663,592.580078 
	C703.205505,583.723755 707.635559,577.005493 715.930359,574.434021 
	C721.730835,572.635925 728.255005,573.172424 734.862915,572.758911 
z"/>
<path fill="#111112" opacity="1.000000" stroke="none" 
	d="
M1096.761841,598.920288 
	C1091.010742,598.924133 1085.729248,598.924133 1079.749634,598.924133 
	C1083.546753,590.259033 1087.091919,582.169128 1091.027100,573.188904 
	C1094.718872,582.017822 1098.021606,589.916199 1101.614136,598.507812 
	C1099.908936,598.666809 1098.570190,598.791626 1096.761841,598.920288 
z"/>
<path fill="#080809" opacity="1.000000" stroke="none" 
	d="
M815.593994,572.715637 
	C823.314758,574.081299 826.465332,577.305359 826.306702,583.267456 
	C826.147278,589.260254 822.233032,593.419800 815.337341,593.945251 
	C809.564209,594.385254 803.730835,594.035583 797.525208,594.035583 
	C797.525208,587.098877 797.525208,580.234375 797.525208,572.664978 
	C803.340698,572.664978 809.241821,572.664978 815.593994,572.715637 
z"/>
</svg>